<svg width="1200" height="800" xmlns="http://www.w3.org/2000/svg">
  <defs>
    <style>
      .title { font: bold 24px Arial; fill: #2c3e50; }
      .subtitle { font: 16px Arial; fill: #34495e; }
      .component { font: 14px Arial; fill: #2c3e50; }
      .small-text { font: 12px Arial; fill: #7f8c8d; }
      .flow-text { font: 11px Arial; fill: #5d6d7e; }
    </style>
    
    <!-- Gradients for modern look -->
    <linearGradient id="kafkaGrad" x1="0%" y1="0%" x2="100%" y2="100%">
      <stop offset="0%" style="stop-color:#FF6B6B;stop-opacity:1" />
      <stop offset="100%" style="stop-color:#EE5A52;stop-opacity:1" />
    </linearGradient>
    
    <linearGradient id="sparkGrad" x1="0%" y1="0%" x2="100%" y2="100%">
      <stop offset="0%" style="stop-color:#4ECDC4;stop-opacity:1" />
      <stop offset="100%" style="stop-color:#44A08D;stop-opacity:1" />
    </linearGradient>
    
    <linearGradient id="airflowGrad" x1="0%" y1="0%" x2="100%" y2="100%">
      <stop offset="0%" style="stop-color:#45B7D1;stop-opacity:1" />
      <stop offset="100%" style="stop-color:#3498DB;stop-opacity:1" />
    </linearGradient>
    
    <linearGradient id="agentGrad" x1="0%" y1="0%" x2="100%" y2="100%">
      <stop offset="0%" style="stop-color:#A8E6CF;stop-opacity:1" />
      <stop offset="100%" style="stop-color:#81C784;stop-opacity:1" />
    </linearGradient>
    
    <linearGradient id="sinkGrad" x1="0%" y1="0%" x2="100%" y2="100%">
      <stop offset="0%" style="stop-color:#FFB74D;stop-opacity:1" />
      <stop offset="100%" style="stop-color:#FF9800;stop-opacity:1" />
    </linearGradient>
  </defs>
  
  <!-- Background -->
  <rect width="1200" height="800" fill="#f8f9fa" stroke="none"/>
  
  <!-- Title -->
  <text x="600" y="40" text-anchor="middle" class="title">Autonomous Data Pipeline Orchestrator</text>
  <text x="600" y="65" text-anchor="middle" class="subtitle">Self-Healing Architecture with AI-Powered Decision Making</text>
  
  <!-- Event Producer -->
  <circle cx="100" cy="150" r="35" fill="#E8F5E8" stroke="#4CAF50" stroke-width="2"/>
  <text x="100" y="150" text-anchor="middle" class="component">Event</text>
  <text x="100" y="165" text-anchor="middle" class="component">Producer</text>
  <text x="100" y="195" text-anchor="middle" class="small-text">Simulates Events</text>
  <text x="100" y="210" text-anchor="middle" class="small-text">with Anomalies</text>
  
  <!-- Kafka -->
  <rect x="220" y="120" width="120" height="80" rx="10" fill="url(#kafkaGrad)" stroke="#E74C3C" stroke-width="2"/>
  <text x="280" y="150" text-anchor="middle" class="component" fill="white">Apache Kafka</text>
  <text x="280" y="170" text-anchor="middle" class="component" fill="white">Topic: customers</text>
  <text x="280" y="220" text-anchor="middle" class="small-text">Event Streaming</text>
  <text x="280" y="235" text-anchor="middle" class="small-text">AVRO Schema</text>
  
  <!-- Spark -->
  <rect x="420" y="120" width="140" height="80" rx="10" fill="url(#sparkGrad)" stroke="#17A2B8" stroke-width="2"/>
  <text x="490" y="145" text-anchor="middle" class="component" fill="white">Spark Structured</text>
  <text x="490" y="165" text-anchor="middle" class="component" fill="white">Streaming</text>
  <text x="490" y="220" text-anchor="middle" class="small-text">Real-time Processing</text>
  <text x="490" y="235" text-anchor="middle" class="small-text">Schema Drift Detection</text>
  
  <!-- Data Sink -->
  <rect x="650" y="120" width="120" height="80" rx="10" fill="url(#sinkGrad)" stroke="#FF9800" stroke-width="2"/>
  <text x="710" y="145" text-anchor="middle" class="component" fill="white">Snowflake</text>
  <text x="710" y="165" text-anchor="middle" class="component" fill="white">/ Parquet</text>
  <text x="710" y="220" text-anchor="middle" class="small-text">Data Storage</text>
  <text x="710" y="235" text-anchor="middle" class="small-text">Curated Data</text>
  
  <!-- Ops Reports -->
  <rect x="650" y="280" width="120" height="60" rx="8" fill="#F8F9FA" stroke="#6C757D" stroke-width="2"/>
  <text x="710" y="305" text-anchor="middle" class="component">Ops Reports</text>
  <text x="710" y="320" text-anchor="middle" class="small-text">Run Metrics</text>
  <text x="710" y="335" text-anchor="middle" class="small-text">DQ Results</text>
  
  <!-- Airflow Orchestration Box -->
  <rect x="50" y="380" width="500" height="180" rx="15" fill="url(#airflowGrad)" stroke="#3498DB" stroke-width="3" fill-opacity="0.1"/>
  <text x="300" y="405" text-anchor="middle" class="component" fill="#2980B9">🔄 Airflow Orchestration</text>
  
  <!-- Airflow Tasks -->
  <rect x="70" y="430" width="80" height="50" rx="5" fill="#ECF0F1" stroke="#BDC3C7" stroke-width="1"/>
  <text x="110" y="450" text-anchor="middle" class="small-text">Monitor</text>
  <text x="110" y="465" text-anchor="middle" class="small-text">Kafka</text>
  
  <rect x="170" y="430" width="80" height="50" rx="5" fill="#ECF0F1" stroke="#BDC3C7" stroke-width="1"/>
  <text x="210" y="450" text-anchor="middle" class="small-text">Run Spark</text>
  <text x="210" y="465" text-anchor="middle" class="small-text">Job</text>
  
  <rect x="270" y="430" width="80" height="50" rx="5" fill="#ECF0F1" stroke="#BDC3C7" stroke-width="1"/>
  <text x="310" y="450" text-anchor="middle" class="small-text">Data Quality</text>
  <text x="310" y="465" text-anchor="middle" class="small-text">(Great Expectations)</text>
  
  <rect x="370" y="430" width="80" height="50" rx="5" fill="#ECF0F1" stroke="#BDC3C7" stroke-width="1"/>
  <text x="410" y="450" text-anchor="middle" class="small-text">Agent</text>
  <text x="410" y="465" text-anchor="middle" class="small-text">Decision</text>
  
  <rect x="470" y="430" width="80" height="50" rx="5" fill="#ECF0F1" stroke="#BDC3C7" stroke-width="1"/>
  <text x="510" y="450" text-anchor="middle" class="small-text">Validate</text>
  <text x="510" y="465" text-anchor="middle" class="small-text">Load</text>
  
  <!-- Decision Agent Box -->
  <rect x="850" y="380" width="280" height="140" rx="15" fill="url(#agentGrad)" stroke="#4CAF50" stroke-width="3" fill-opacity="0.1"/>
  <text x="990" y="405" text-anchor="middle" class="component" fill="#2E7D32">🤖 AI Decision Agent</text>
  
  <!-- Agent Components -->
  <rect x="870" y="430" width="100" height="40" rx="5" fill="#E8F5E8" stroke="#4CAF50" stroke-width="1"/>
  <text x="920" y="450" text-anchor="middle" class="small-text">LangChain LLM</text>
  <text x="920" y="465" text-anchor="middle" class="small-text">Reasoning</text>
  
  <rect x="990" y="430" width="120" height="40" rx="5" fill="#E8F5E8" stroke="#4CAF50" stroke-width="1"/>
  <text x="1050" y="445" text-anchor="middle" class="small-text">Remediation Tools</text>
  <text x="1050" y="460" text-anchor="middle" class="small-text">• Schema Remap</text>
  <text x="1050" y="475" text-anchor="middle" class="small-text">• Quarantine • Notify</text>
  
  <!-- Monitoring Section -->
  <rect x="50" y="650" width="400" height="120" rx="10" fill="#FFF3E0" stroke="#FF9800" stroke-width="2"/>
  <text x="250" y="675" text-anchor="middle" class="component">📊 Monitoring & Alerting</text>
  
  <rect x="70" y="690" width="90" height="35" rx="3" fill="#FFECB3" stroke="#FFC107" stroke-width="1"/>
  <text x="115" y="710" text-anchor="middle" class="small-text">Slack Alerts</text>
  
  <rect x="180" y="690" width="90" height="35" rx="3" fill="#FFECB3" stroke="#FFC107" stroke-width="1"/>
  <text x="225" y="710" text-anchor="middle" class="small-text">Email Alerts</text>
  
  <rect x="290" y="690" width="90" height="35" rx="3" fill="#FFECB3" stroke="#FFC107" stroke-width="1"/>
  <text x="335" y="710" text-anchor="middle" class="small-text">Incident Store</text>
  
  <!-- Key Features Box -->
  <rect x="750" y="580" width="400" height="180" rx="10" fill="#F3E5F5" stroke="#9C27B0" stroke-width="2"/>
  <text x="950" y="605" text-anchor="middle" class="component">⚡ Key Capabilities</text>
  
  <text x="770" y="630" class="small-text">• Real-time schema drift detection & auto-remediation</text>
  <text x="770" y="650" class="small-text">• Intelligent late data handling with watermarks</text>
  <text x="770" y="670" class="small-text">• AI-powered decision making using LangChain</text>
  <text x="770" y="690" class="small-text">• Data quality monitoring with Great Expectations</text>
  <text x="770" y="710" class="small-text">• Autonomous actions: remap, quarantine, escalate</text>
  <text x="770" y="730" class="small-text">• Complete observability and incident tracking</text>
  <text x="770" y="750" class="small-text">• Production-ready Docker deployment</text>
  
  <!-- Flow Arrows -->
  <!-- Producer to Kafka -->
  <defs>
    <marker id="arrowhead" markerWidth="10" markerHeight="7" refX="9" refY="3.5" orient="auto">
      <polygon points="0 0, 10 3.5, 0 7" fill="#5D6D7E" />
    </marker>
  </defs>
  
  <line x1="135" y1="150" x2="215" y2="150" stroke="#5D6D7E" stroke-width="2" marker-end="url(#arrowhead)"/>
  <text x="175" y="140" text-anchor="middle" class="flow-text">JSON/AVRO</text>
  
  <!-- Kafka to Spark -->
  <line x1="345" y1="160" x2="415" y2="160" stroke="#5D6D7E" stroke-width="2" marker-end="url(#arrowhead)"/>
  <text x="380" y="150" text-anchor="middle" class="flow-text">Stream</text>
  
  <!-- Spark to Sink -->
  <line x1="565" y1="150" x2="645" y2="150" stroke="#5D6D7E" stroke-width="2" marker-end="url(#arrowhead)"/>
  <text x="605" y="140" text-anchor="middle" class="flow-text">Curated</text>
  
  <!-- Spark to Ops -->
  <line x1="520" y1="205" x2="650" y2="290" stroke="#5D6D7E" stroke-width="2" marker-end="url(#arrowhead)"/>
  <text x="590" y="250" text-anchor="middle" class="flow-text">Reports</text>
  
  <!-- Ops to Agent -->
  <line x1="775" y1="310" x2="845" y2="400" stroke="#5D6D7E" stroke-width="2" marker-end="url(#arrowhead)"/>
  <text x="815" y="350" text-anchor="middle" class="flow-text">Analysis</text>
  
  <!-- Agent to Airflow -->
  <line x1="850" y1="440" x2="555" y2="440" stroke="#5D6D7E" stroke-width="2" marker-end="url(#arrowhead)"/>
  <text x="700" y="430" text-anchor="middle" class="flow-text">Actions</text>
  
  <!-- Agent to Monitoring -->
  <line x1="900" y1="525" x2="400" y2="650" stroke="#5D6D7E" stroke-width="2" marker-end="url(#arrowhead)"/>
  <text x="650" y="590" text-anchor="middle" class="flow-text">Alerts</text>
  
  <!-- Airflow task flow arrows -->
  <line x1="150" y1="455" x2="165" y2="455" stroke="#95A5A6" stroke-width="1" marker-end="url(#arrowhead)"/>
  <line x1="250" y1="455" x2="265" y2="455" stroke="#95A5A6" stroke-width="1" marker-end="url(#arrowhead)"/>
  <line x1="350" y1="455" x2="365" y2="455" stroke="#95A5A6" stroke-width="1" marker-end="url(#arrowhead)"/>
  <line x1="450" y1="455" x2="465" y2="455" stroke="#95A5A6" stroke-width="1" marker-end="url(#arrowhead)"/>
  
  <!-- GitHub info -->
  <text x="1050" y="790" text-anchor="middle" class="small-text" fill="#7f8c8d">github.com/AbdulSohail018/Autonomous-Orchestrator-Ai</text>
</svg>